<svg width="62" height="68" viewBox="0 0 62 68" fill="none" xmlns="http://www.w3.org/2000/svg">
<path d="M50.6419 67.9547H5.85215C5.08571 67.9573 4.32625 67.8163 3.61735 67.5398C2.90845 67.2632 2.26405 66.8565 1.7211 66.343C1.17816 65.8295 0.747358 65.2193 0.45341 64.5475C0.159463 63.8756 0.00815309 63.1552 0.00815818 62.4277C-0.00271939 62.2803 -0.00271939 62.1322 0.00815818 61.9848C0.127497 60.6021 0.78832 59.3121 1.8603 58.3691C2.93228 57.4261 4.3376 56.8987 5.79911 56.8907H50.6843C51.0078 56.8907 51.3181 57.0127 51.5468 57.2298C51.7755 57.4469 51.904 57.7414 51.904 58.0484C51.904 58.3555 51.7755 58.65 51.5468 58.8671C51.3181 59.0842 51.0078 59.2062 50.6843 59.2062H5.85215C5.00709 59.2085 4.19375 59.5119 3.57309 60.0563C2.95244 60.6007 2.56969 61.3464 2.5006 62.1458V62.468C2.5034 63.3216 2.86188 64.1395 3.49776 64.743C4.13365 65.3466 4.99529 65.6869 5.89457 65.6895H50.6419C50.8109 65.6745 50.9814 65.6932 51.1424 65.7443C51.3034 65.7954 51.4513 65.8778 51.5768 65.9863C51.7023 66.0948 51.8026 66.227 51.8712 66.3744C51.9398 66.5218 51.9752 66.6811 51.9752 66.8423C51.9752 67.0034 51.9398 67.1627 51.8712 67.3101C51.8026 67.4575 51.7023 67.5897 51.5768 67.6982C51.4513 67.8067 51.3034 67.8891 51.1424 67.9402C50.9814 67.9913 50.8109 68.01 50.6419 67.995V67.9547Z" fill="#E6EFFE"/>
<path d="M50.6525 63.5854H5.55516C5.23167 63.5854 4.92143 63.4635 4.69269 63.2463C4.46395 63.0292 4.33545 62.7348 4.33545 62.4277C4.33545 62.1206 4.46395 61.8262 4.69269 61.6091C4.92143 61.3919 5.23167 61.27 5.55516 61.27H50.6525C50.976 61.27 51.2862 61.3919 51.515 61.6091C51.7437 61.8262 51.8722 62.1206 51.8722 62.4277C51.8722 62.7348 51.7437 63.0292 51.515 63.2463C51.2862 63.4635 50.976 63.5854 50.6525 63.5854Z" fill="#E6EFFE"/>
<path d="M1.2915 63.1525C1.12713 63.1565 0.963547 63.1297 0.810083 63.0737C0.656618 63.0177 0.516285 62.9335 0.397105 62.826C0.277925 62.7185 0.182232 62.5898 0.115495 62.4471C0.0487573 62.3045 0.0122839 62.1508 0.00815818 61.9947V14.2354C-0.00271939 14.0879 -0.00271939 13.9399 0.00815818 13.7924C0.0864833 13.0921 0.294746 12.4104 0.623315 11.7789V11.7085C0.76679 11.4439 0.933545 11.1913 1.1218 10.9534C1.33387 10.6971 1.56422 10.4549 1.8112 10.2286L1.9809 10.0977C2.18766 9.92497 2.40744 9.76683 2.63848 9.62452L2.91424 9.48358C3.24303 9.31244 3.40213 9.2319 3.57182 9.16143C3.73732 9.09913 3.9075 9.04865 4.08092 9.01042C4.36729 8.91981 4.49456 8.88961 4.62183 8.85941C4.99537 8.78719 5.37549 8.7501 5.75669 8.74866H8.81126C9.13475 8.74866 9.44499 8.87064 9.67372 9.08776C9.90246 9.30488 10.031 9.59936 10.031 9.90641V58.0484C10.0324 58.2008 10.0018 58.3519 9.94101 58.493C9.88021 58.6341 9.79042 58.7622 9.67688 58.87C9.56334 58.9778 9.42831 59.063 9.27969 59.1207C9.13107 59.1784 8.97183 59.2074 8.81126 59.2061H5.85215C5.00709 59.2085 4.19375 59.5118 3.57309 60.0562C2.95244 60.6006 2.56969 61.3463 2.5006 62.1458C2.46419 62.4251 2.3209 62.682 2.09798 62.8676C1.87505 63.0532 1.58803 63.1546 1.2915 63.1525ZM2.82939 12.8159C2.65475 13.1612 2.54355 13.5323 2.5006 13.9132V14.2354V57.9275C3.49238 57.2618 4.67991 56.9096 5.89457 56.9208H7.72943V11.0138H5.85215C5.62751 11.0163 5.40368 11.0399 5.18396 11.0843L4.95062 11.1548L4.59001 11.2554C4.50658 11.2917 4.42516 11.332 4.34607 11.3762L4.12334 11.487C3.96334 11.5753 3.81397 11.68 3.67788 11.7991C3.50225 11.9372 3.34229 12.0925 3.20061 12.2622C3.0704 12.4246 2.95339 12.5963 2.85061 12.7756C2.85061 12.7834 2.84869 12.7911 2.84501 12.7981C2.84132 12.8051 2.83598 12.8112 2.82939 12.8159Z" fill="#E6EFFE"/>
<path d="M58.6284 59.2062H13.7962C12.2509 59.2062 10.7688 58.6242 9.67511 57.588C8.58144 56.5518 7.96561 55.146 7.9628 53.6792C7.95185 53.525 7.95185 53.3703 7.9628 53.2161C8.09481 51.8434 8.76146 50.5668 9.83241 49.6359C10.9034 48.705 12.3016 48.1868 13.7538 48.1824H58.6708C58.8398 48.1674 59.0103 48.1861 59.1713 48.2372C59.3322 48.2883 59.4802 48.3707 59.6057 48.4792C59.7312 48.5877 59.8315 48.7199 59.9001 48.8673C59.9687 49.0147 60.0041 49.174 60.0041 49.3352C60.0041 49.4963 59.9687 49.6556 59.9001 49.803C59.8315 49.9504 59.7312 50.0826 59.6057 50.1911C59.4802 50.2996 59.3322 50.382 59.1713 50.4331C59.0103 50.4842 58.8398 50.5029 58.6708 50.4879H13.7962C12.9585 50.4916 12.1521 50.7901 11.5329 51.3257C10.9138 51.8613 10.526 52.5959 10.4446 53.3873V53.7094C10.4556 54.5499 10.8123 55.353 11.4384 55.9474C12.0646 56.5417 12.9107 56.8802 13.7962 56.8907H58.6284C58.9519 56.8907 59.2621 57.0127 59.4908 57.2298C59.7196 57.4469 59.8481 57.7414 59.8481 58.0484C59.8481 58.3555 59.7196 58.65 59.4908 58.8671C59.2621 59.0842 58.9519 59.2062 58.6284 59.2062Z" fill="#E6EFFE"/>
<path d="M9.12923 54.404C8.80172 54.4042 8.48695 54.2835 8.25144 54.0675C8.01593 53.8514 7.87811 53.557 7.8671 53.2463V5.48687C7.85615 5.33268 7.85615 5.17797 7.8671 5.02378C7.93597 4.3217 8.14472 3.63844 8.48226 3.01031C8.63748 2.72422 8.81846 2.45139 9.02317 2.19486C9.23524 1.93857 9.46558 1.69638 9.71257 1.47001L9.90348 1.319C10.1029 1.15689 10.3118 1.00564 10.5292 0.865972L10.8368 0.704895C11.041 0.58978 11.2537 0.488844 11.4732 0.402876C11.6323 0.342472 11.8126 0.292136 11.9929 0.241799C12.1669 0.185973 12.3439 0.138927 12.5232 0.100857C12.8934 0.0314973 13.2701 -0.00223162 13.6475 0.000183817H60.2933C60.6122 -0.00523095 60.9204 0.109171 61.1508 0.318473C61.3813 0.527775 61.5153 0.815021 61.5236 1.11766V49.3099C61.5236 49.6143 61.3962 49.9062 61.1695 50.1215C60.9427 50.3367 60.6352 50.4576 60.3145 50.4576H13.6899C12.8527 50.4593 12.0462 50.7574 11.4283 51.2936C10.8104 51.8299 10.4255 52.5656 10.3489 53.357C10.3175 53.6436 10.1756 53.9091 9.95045 54.1024C9.72529 54.2956 9.4328 54.4031 9.12923 54.404ZM10.6989 4.06738C10.5145 4.42052 10.3995 4.80262 10.3595 5.19492V5.51708V49.2093C11.3474 48.5437 12.5315 48.1913 13.7429 48.2025H59.0736V2.26533H13.6899C13.4688 2.26887 13.2486 2.29247 13.0323 2.3358L12.7671 2.41634L12.4384 2.50695C12.3575 2.53774 12.2795 2.57477 12.205 2.61769L11.9823 2.72843C11.8168 2.82217 11.6606 2.93 11.5156 3.05058C11.3426 3.18817 11.1861 3.34347 11.0489 3.51368C10.9112 3.67103 10.7937 3.84339 10.6989 4.02711V4.06738Z" fill="#E6EFFE"/>
<path d="M58.6392 54.837H13.3403C13.0168 54.837 12.7066 54.715 12.4778 54.4979C12.2491 54.2808 12.1206 53.9863 12.1206 53.6792C12.1206 53.3722 12.2491 53.0777 12.4778 52.8606C12.7066 52.6435 13.0168 52.5215 13.3403 52.5215H58.6392C58.7993 52.5215 58.958 52.5514 59.1059 52.6096C59.2539 52.6678 59.3884 52.7531 59.5016 52.8606C59.6149 52.9681 59.7047 53.0957 59.766 53.2362C59.8273 53.3766 59.8589 53.5272 59.8589 53.6792C59.8589 53.8313 59.8273 53.9818 59.766 54.1223C59.7047 54.2627 59.6149 54.3904 59.5016 54.4979C59.3884 54.6054 59.2539 54.6907 59.1059 54.7488C58.958 54.807 58.7993 54.837 58.6392 54.837Z" fill="#E6EFFE"/>
<path d="M49.5068 20.2759H26.5233C26.3542 20.2909 26.1838 20.2722 26.0228 20.2211C25.8618 20.17 25.7138 20.0876 25.5883 19.9791C25.4628 19.8706 25.3626 19.7384 25.294 19.591C25.2254 19.4437 25.1899 19.2843 25.1899 19.1232C25.1899 18.962 25.2254 18.8027 25.294 18.6553C25.3626 18.5079 25.4628 18.3757 25.5883 18.2672C25.7138 18.1587 25.8618 18.0763 26.0228 18.0252C26.1838 17.9741 26.3542 17.9554 26.5233 17.9705H49.5068C49.6758 17.9554 49.8463 17.9741 50.0073 18.0252C50.1682 18.0763 50.3162 18.1587 50.4417 18.2672C50.5672 18.3757 50.6675 18.5079 50.7361 18.6553C50.8047 18.8027 50.8401 18.962 50.8401 19.1232C50.8401 19.2843 50.8047 19.4437 50.7361 19.591C50.6675 19.7384 50.5672 19.8706 50.4417 19.9791C50.3162 20.0876 50.1682 20.17 50.0073 20.2211C49.8463 20.2722 49.6758 20.2909 49.5068 20.2759Z" fill="#E6EFFE"/>
<path d="M49.5069 16.8427H26.5234C26.1999 16.8427 25.8897 16.7207 25.661 16.5036C25.4322 16.2865 25.3037 15.992 25.3037 15.685C25.3037 15.3779 25.4322 15.0834 25.661 14.8663C25.8897 14.6492 26.1999 14.5272 26.5234 14.5272H49.5069C49.8304 14.5272 50.1407 14.6492 50.3694 14.8663C50.5981 15.0834 50.7267 15.3779 50.7267 15.685C50.7267 15.992 50.5981 16.2865 50.3694 16.5036C50.1407 16.7207 49.8304 16.8427 49.5069 16.8427Z" fill="#E6EFFE"/>
<path d="M38.6675 23.7189H26.5234C26.3632 23.7189 26.2046 23.6889 26.0567 23.6307C25.9087 23.5725 25.7742 23.4873 25.661 23.3798C25.5477 23.2722 25.4579 23.1446 25.3966 23.0042C25.3353 22.8637 25.3037 22.7131 25.3037 22.5611C25.3037 22.4091 25.3353 22.2585 25.3966 22.1181C25.4579 21.9776 25.5477 21.85 25.661 21.7425C25.7742 21.635 25.9087 21.5497 26.0567 21.4915C26.2046 21.4333 26.3632 21.4034 26.5234 21.4034H38.6675C38.8276 21.4034 38.9862 21.4333 39.1342 21.4915C39.2822 21.5497 39.4167 21.635 39.5299 21.7425C39.6432 21.85 39.733 21.9776 39.7943 22.1181C39.8556 22.2585 39.8872 22.4091 39.8872 22.5611C39.8872 22.7131 39.8556 22.8637 39.7943 23.0042C39.733 23.1446 39.6432 23.2722 39.5299 23.3798C39.4167 23.4873 39.2822 23.5725 39.1342 23.6307C38.9862 23.6889 38.8276 23.7189 38.6675 23.7189Z" fill="#E6EFFE"/>
<path d="M60.1454 40.5917H51.0771C50.7536 40.5917 50.4434 40.4698 50.2147 40.2526C49.9859 40.0355 49.8574 39.741 49.8574 39.434C49.8574 39.1269 49.9859 38.8325 50.2147 38.6153C50.4434 38.3982 50.7536 38.2762 51.0771 38.2762H60.1454C60.4689 38.2762 60.7791 38.3982 61.0079 38.6153C61.2366 38.8325 61.3651 39.1269 61.3651 39.434C61.3651 39.741 61.2366 40.0355 61.0079 40.2526C60.7791 40.4698 60.4689 40.5917 60.1454 40.5917Z" fill="#E6EFFE"/>
<path d="M60.145 44.2059H54.7358C54.5756 44.2059 54.417 44.1759 54.2691 44.1178C54.1211 44.0596 53.9866 43.9743 53.8734 43.8668C53.7601 43.7593 53.6703 43.6317 53.609 43.4912C53.5477 43.3507 53.5161 43.2002 53.5161 43.0482C53.5161 42.8961 53.5477 42.7456 53.609 42.6051C53.6703 42.4646 53.7601 42.337 53.8734 42.2295C53.9866 42.122 54.1211 42.0367 54.2691 41.9785C54.417 41.9204 54.5756 41.8904 54.7358 41.8904H60.145C60.4684 41.8904 60.7787 42.0124 61.0074 42.2295C61.2362 42.4466 61.3647 42.7411 61.3647 43.0482C61.3647 43.3552 61.2362 43.6497 61.0074 43.8668C60.7787 44.0839 60.4684 44.2059 60.145 44.2059Z" fill="#E6EFFE"/>
<path d="M15.9702 46.9643C15.8097 46.9656 15.6504 46.9366 15.5018 46.8789C15.3532 46.8212 15.2182 46.736 15.1046 46.6282C14.9911 46.5204 14.9013 46.3922 14.8405 46.2512C14.7797 46.1101 14.7491 45.959 14.7505 45.8065V4.63119C14.7505 4.32413 14.879 4.02966 15.1078 3.81254C15.3365 3.59542 15.6468 3.47344 15.9702 3.47344C16.2937 3.47344 16.604 3.59542 16.8327 3.81254C17.0614 4.02966 17.1899 4.32413 17.1899 4.63119V45.8065C17.1899 46.1136 17.0614 46.4081 16.8327 46.6252C16.604 46.8423 16.2937 46.9643 15.9702 46.9643Z" fill="#E6EFFE"/>
</svg>
