<svg width="78" height="68" viewBox="0 0 78 68" fill="none" xmlns="http://www.w3.org/2000/svg">
<path d="M42.0789 21.0499C43.2856 19.811 44.1067 18.2361 44.439 16.5229C44.7713 14.8096 44.6 13.0345 43.9466 11.4202C43.2932 9.80592 42.1868 8.4245 40.7664 7.44935C39.3459 6.47419 37.6747 5.94876 35.9625 5.93901H35.9587C33.6638 5.93949 31.4631 6.8698 29.8407 8.52528C28.2183 10.1808 27.3071 12.4258 27.3076 14.7665C27.3081 17.1072 28.2202 19.3519 29.8432 21.0067C31.4663 22.6615 33.6673 23.5909 35.9622 23.5904H35.9664V22.6214L35.974 23.6218C37.1078 23.6263 38.2312 23.4013 39.2791 22.9599C40.3271 22.5184 41.2787 21.8692 42.0789 21.0499ZM35.9653 21.6108C35.9653 21.6108 35.9627 21.6316 35.9616 21.6316C35.0826 21.634 34.2118 21.4594 33.3992 21.1178C32.5865 20.7761 31.848 20.2743 31.2259 19.6409C30.6038 19.0075 30.1105 18.2551 29.7741 17.4269C29.4377 16.5986 29.265 15.7107 29.2657 14.8142C29.2625 12.9949 29.9656 11.2483 31.2212 9.95622C32.4768 8.66409 34.1828 7.93151 35.9664 7.91861H35.9693C37.7495 7.9181 39.4569 8.6389 40.716 9.92244C41.9751 11.206 42.6827 12.9471 42.6832 14.7628C42.6837 16.5785 41.977 18.32 40.7186 19.6043C39.4602 20.8885 37.7532 21.6103 35.9731 21.6108H35.9653Z" fill="#0061FE" fill-opacity="0.1"/>
<path d="M57.7551 0.000215157C55.4705 0.0107247 53.2831 0.94386 51.6715 2.59541C50.0599 4.24697 49.1553 6.48244 49.1558 8.81263C49.1562 11.1428 50.0616 13.3779 51.6738 15.0289C53.286 16.6798 55.4738 17.6121 57.7583 17.6218C57.7782 17.6218 57.7981 17.6218 57.8178 17.6218C57.8376 17.6218 57.8592 17.6218 57.8796 17.6218C60.1706 17.6054 62.3614 16.6615 63.97 14.9976C65.5787 13.3337 66.4735 11.0862 66.4575 8.74945C66.4415 6.41269 65.516 4.17812 63.8847 2.53732C62.2534 0.89652 60.0499 -0.0161043 57.7589 0.000215157H57.7551ZM57.7659 1.97981C58.6472 1.97928 59.5199 2.15631 60.3339 2.50073C61.1479 2.84514 61.8872 3.35016 62.5094 3.9868C63.1315 4.62344 63.6243 5.37914 63.9593 6.21054C64.2944 7.04193 64.4651 7.93264 64.4617 8.83152C64.4884 12.5683 61.5295 15.672 57.8646 15.672H57.7594C56.878 15.6718 56.0052 15.4944 55.191 15.1501C54.3768 14.8058 53.637 14.3013 53.0139 13.6654C52.3908 13.0295 51.8966 12.2747 51.5595 11.444C51.2225 10.6133 51.0491 9.72298 51.0494 8.82393C51.0496 7.92489 51.2235 7.0347 51.561 6.20419C51.8986 5.37369 52.3932 4.61912 53.0166 3.98359C53.6401 3.34805 54.3802 2.84399 55.1946 2.50018C56.009 2.15637 56.8819 1.97955 57.7633 1.97981H57.7659Z" fill="#0061FE" fill-opacity="0.1"/>
<path d="M14.1644 17.6516H14.1692C18.9231 17.6516 22.643 13.7584 22.8047 8.82593V8.79986C22.8044 7.64327 22.5806 6.49808 22.1461 5.42976C21.7117 4.36144 21.075 3.39092 20.2726 2.5737C19.4702 1.75647 18.5178 1.10855 17.4697 0.666979C16.4217 0.225408 15.2986 -0.00115975 14.1647 0.000227585H14.1608C11.8659 0.000708855 9.66524 0.931018 8.04286 2.5865C6.42048 4.24198 5.50929 6.48702 5.50977 8.82774C5.51024 11.1685 6.42232 13.4131 8.04538 15.0679C9.66843 16.7227 11.8695 17.6521 14.1644 17.6516ZM9.42812 3.98004C10.049 3.34316 10.7877 2.83839 11.6014 2.49502C12.4151 2.15166 13.2875 1.97654 14.1681 1.97982H14.1699C15.0499 1.97917 15.9214 2.15557 16.7345 2.49892C17.5476 2.84227 18.2863 3.34583 18.9083 3.98076C19.5303 4.6157 20.0235 5.36954 20.3595 6.19913C20.6955 7.02873 20.8678 7.91777 20.8665 8.81537C20.7918 12.6531 17.8513 15.672 14.1681 15.672H14.1637C12.8379 15.6668 11.5432 15.2617 10.4426 14.5077C9.34196 13.7537 8.48458 12.6845 7.97835 11.4347C7.47211 10.1848 7.33965 8.81013 7.59762 7.48366C7.85559 6.15718 8.49248 4.93817 9.42812 3.98004Z" fill="#0061FE" fill-opacity="0.1"/>
<path d="M72.1338 37.0583V32.8544C72.1338 25.9626 66.5767 20.2911 59.8183 20.2911H55.9058C50.8415 20.2911 46.2788 23.5233 44.4055 28.2819C42.4666 27.0468 40.2262 26.3929 37.9403 26.3948H34.0092C31.7282 26.3911 29.4922 27.0412 27.5559 28.2708C26.6461 25.9273 25.0696 23.915 23.0293 22.4929C20.9889 21.0708 18.5781 20.304 16.1069 20.2911H12.2121C8.96531 20.3027 5.85571 21.6281 3.56606 23.9762C1.27642 26.3242 -0.00612556 29.5031 2.19985e-05 32.8148V45.3193C2.19985e-05 45.8658 0.393199 46.3564 0.929027 46.3564H21.8342V51.4123C21.8342 51.959 22.1901 52.4602 22.726 52.4602H42.7603C43.8582 61.2034 51.2368 68 60.1468 68C69.8114 68 77.7143 59.9841 77.7143 50.1492C77.7089 47.6942 77.211 45.2664 76.2513 43.0151C75.2916 40.7638 73.8903 38.7366 72.1338 37.0583ZM55.9058 22.2707H59.8167C65.5027 22.2707 70.193 27.0509 70.193 32.8528V35.4705C67.2459 33.4115 63.759 32.3059 60.1869 32.298C56.4511 32.2938 52.8117 33.5076 49.8 35.7623C49.1813 33.3487 47.8705 31.1784 46.0354 29.5292C47.4867 25.2416 51.4631 22.2707 55.9058 22.2707ZM1.94084 44.3762V32.8165C1.93439 30.0292 3.01253 27.3533 4.93857 25.3761C6.86461 23.3989 9.48114 22.282 12.2138 22.2707H16.1049C18.2835 22.2851 20.4036 22.9905 22.1714 24.2892C23.9392 25.5878 25.267 27.4153 25.9708 29.5183C24.6653 30.6926 23.621 32.1379 22.9076 33.7573C22.1942 35.3767 21.8282 37.1328 21.8342 38.9082V44.3762H1.94084ZM23.7751 50.4799V38.9097C23.7751 33.1152 28.3303 28.3744 34.0109 28.3744H37.9387C40.379 28.3794 42.7386 29.2666 44.5982 30.8784C46.4578 32.4903 47.697 34.7223 48.0956 37.178C46.3652 38.8472 44.987 40.8591 44.0453 43.0904C43.1036 45.3218 42.6183 47.7256 42.6191 50.1549C42.6191 50.2511 42.621 50.3149 42.6227 50.4799H23.7751ZM60.1468 65.991C51.5522 65.991 44.5603 58.8777 44.5603 50.1343C44.5603 41.3909 51.5522 34.2776 60.1468 34.2776C68.7414 34.2776 75.7334 41.3909 75.7334 50.1343C75.7334 58.8777 68.7412 65.991 60.1468 65.991Z" fill="#0061FE" fill-opacity="0.1"/>
<path d="M67.7109 39.4272H53.8108C53.4357 39.4206 53.0631 39.4905 52.7149 39.6328C52.3667 39.7751 52.0499 39.9869 51.783 40.2558C51.5162 40.5248 51.3047 40.8454 51.1611 41.1988C51.0174 41.5523 50.9445 41.9315 50.9465 42.3141V58.1014C50.9465 58.1126 50.9303 58.1235 50.9303 58.1344C50.9303 58.1509 50.9219 58.1995 50.9219 58.2154C50.9199 59.0013 51.2224 59.7562 51.7635 60.3157C52.3046 60.8752 53.0405 61.194 53.811 61.2027H66.6833C67.2191 61.2027 67.6052 60.6928 67.6052 60.147V57.2436H67.7109C67.9779 57.2373 68.2326 57.1277 68.4232 56.9369C68.6139 56.7461 68.7262 56.4885 68.7373 56.2163V40.3484C68.7373 39.8018 68.2469 39.4272 67.7109 39.4272ZM52.8873 42.3141C52.885 42.1913 52.9076 42.0694 52.9536 41.956C52.9997 41.8426 53.0682 41.74 53.1549 41.6549C53.2416 41.5697 53.3446 41.5037 53.4575 41.461C53.5703 41.4183 53.6906 41.3999 53.8108 41.4068H54.9898V55.264H53.811C53.4982 55.253 53.1859 55.2963 52.8873 55.392V42.3141ZM65.6643 59.2231H53.811C53.5536 59.2231 53.3068 59.1189 53.1248 58.9332C52.9428 58.7476 52.8405 58.4959 52.8405 58.2334C52.8405 57.9708 52.9428 57.7191 53.1248 57.5335C53.3068 57.3478 53.5536 57.2436 53.811 57.2436H65.6643V59.2231ZM66.7965 55.264H56.9307V41.4068H66.7965V55.264Z" fill="#0061FE" fill-opacity="0.1"/>
</svg>
