<svg width="78" height="68" viewBox="0 0 78 68" fill="none" xmlns="http://www.w3.org/2000/svg">
<path d="M77.1706 63.7437L72.4221 59.5889C72.494 59.3637 72.5323 59.1292 72.5356 58.8929V22.4643C72.5342 21.1765 72.022 19.9419 71.1114 19.0314C70.2008 18.1208 68.9662 17.6086 67.6785 17.6071H64.1071L62.5047 20.0357H67.6785C68.3226 20.0357 68.9403 20.2916 69.3958 20.747C69.8512 21.2025 70.1071 21.8202 70.1071 22.4643V58.8929H8.17849V22.4643C8.17849 21.8202 8.43436 21.2025 8.8898 20.747C9.34525 20.2916 9.96297 20.0357 10.6071 20.0357H15.781L14.1786 17.6071H10.6071C9.31932 17.6086 8.08473 18.1208 7.17416 19.0314C6.26358 19.9419 5.75138 21.1765 5.74992 22.4643V58.8929C5.75328 59.1292 5.79152 59.3637 5.86339 59.5889L1.11499 63.7437C0.743143 64.0691 0.479383 64.5002 0.358923 64.9793C0.238463 65.4585 0.267034 65.9631 0.440822 66.4256C0.61461 66.8881 0.925346 67.2867 1.33155 67.568C1.73776 67.8493 2.2201 68 2.71421 68H75.5714C76.0655 68 76.5478 67.8493 76.954 67.568C77.3602 67.2867 77.671 66.8881 77.8447 66.4256C78.0185 65.9631 78.0471 65.4585 77.9266 64.9793C77.8062 64.5002 77.5424 64.0691 77.1706 63.7437ZM2.71421 65.5714L7.57135 61.3214H70.7142L75.5714 65.5714H2.71421Z" fill="#025CF5" fill-opacity="0.1"/>
<path d="M36.7983 14.5064C36.8001 14.2894 36.7156 14.0805 36.5636 13.9256C36.4115 13.7707 36.2042 13.6824 35.9872 13.6802C35.8124 13.6816 35.6419 13.7348 35.4974 13.8332C35.0935 14.1754 34.7632 14.5959 34.5265 15.0694C34.2897 15.5429 34.1515 16.0594 34.1201 16.5879H33.2325C33.1384 16.5869 33.045 16.6046 32.9578 16.6399C32.8706 16.6752 32.7912 16.7275 32.7243 16.7937C32.6574 16.8599 32.6043 16.9387 32.5681 17.0255C32.5318 17.1124 32.5132 17.2056 32.5132 17.2997C32.5132 17.3938 32.5318 17.4869 32.5681 17.5738C32.6043 17.6606 32.6574 17.7395 32.7243 17.8056C32.7912 17.8718 32.8706 17.9241 32.9578 17.9594C33.045 17.9948 33.1384 18.0124 33.2325 18.0115H34.1047C34.3193 19.9704 35.4974 20.8272 36.86 20.8272C40.5479 20.8272 39.5227 15.2411 41.7574 15.2411C42.7061 15.2411 43.165 15.9146 43.165 17.3074C43.1514 17.7827 43.0412 18.2504 42.8413 18.6818C42.6413 19.1133 42.3556 19.4996 42.0017 19.8172C41.9002 19.8984 41.8176 20.0007 41.7595 20.117C41.7015 20.2333 41.6694 20.3608 41.6655 20.4907C41.6676 20.6362 41.7082 20.7785 41.7832 20.9031C41.8581 21.0278 41.9648 21.1303 42.0923 21.2003C42.2198 21.2703 42.3636 21.3053 42.5091 21.3016C42.6545 21.2979 42.7963 21.2557 42.9201 21.1794C43.4334 20.8132 43.8618 20.3406 44.1761 19.794C44.4904 19.2473 44.6833 18.6393 44.7416 18.0115H45.5983C45.6925 18.0125 45.7859 17.9949 45.8732 17.9596C45.9605 17.9243 46.0399 17.8721 46.1069 17.8059C46.1738 17.7397 46.227 17.6608 46.2632 17.5739C46.2995 17.4871 46.3182 17.3938 46.3182 17.2997C46.3182 17.2055 46.2995 17.1123 46.2632 17.0254C46.227 16.9385 46.1738 16.8597 46.1069 16.7935C46.0399 16.7273 45.9605 16.675 45.8732 16.6397C45.7859 16.6044 45.6925 16.5868 45.5983 16.5879H44.7415C44.5423 14.5373 43.4407 13.4659 41.7574 13.4659C37.9308 13.4659 38.8646 19.052 36.86 19.052C36.2475 19.052 35.6504 18.5777 35.6504 17.3074C35.6435 16.5168 35.9329 15.7524 36.4615 15.1646C36.6528 14.9955 36.7731 14.7604 36.7983 14.5064Z" fill="#025CF5" fill-opacity="0.1"/>
<path d="M58.2676 32.7857C58.2676 32.4636 58.1396 32.1548 57.9119 31.9271C57.6842 31.6994 57.3753 31.5714 57.0533 31.5714H21.2319C20.9098 31.5714 20.601 31.6993 20.3732 31.9271C20.1455 32.1548 20.0176 32.4636 20.0176 32.7857C20.0176 33.1077 20.1455 33.4166 20.3732 33.6443C20.601 33.872 20.9098 34 21.2319 34H57.0533C57.3753 34 57.6842 33.872 57.9119 33.6443C58.1396 33.4166 58.2676 33.1077 58.2676 32.7857Z" fill="#025CF5" fill-opacity="0.1"/>
<path d="M24.7003 29.1429H29.4289V3.64286C29.4292 3.32092 29.5573 3.01228 29.7849 2.78463C30.0126 2.55699 30.3212 2.42894 30.6431 2.42857H47.6431C47.9651 2.42894 48.2737 2.55699 48.5014 2.78463C48.729 3.01228 48.8571 3.32092 48.8574 3.64286V29.1429H53.5861L62.4939 15.6431C62.7577 15.2429 62.94 14.7945 63.0303 14.3237C63.1205 13.8529 63.117 13.3689 63.0199 12.8995C62.9228 12.4301 62.734 11.9844 62.4644 11.588C62.1947 11.1917 61.8495 10.8524 61.4486 10.5897L57.9952 8.32787C58.1114 7.4507 57.9047 6.56122 57.4136 5.82517C56.9225 5.08911 56.1806 4.55669 55.3261 4.32711L51.263 3.24378C51.1639 2.35268 50.7399 1.52933 50.0722 0.930981C49.4045 0.332628 48.5397 0.00120146 47.6431 0H30.6431C29.7465 0.00120063 28.8818 0.332622 28.2141 0.930969C27.5464 1.52932 27.1224 2.35266 27.0233 3.24375L22.9602 4.32711C22.1057 4.5567 21.3637 5.08912 20.8727 5.82518C20.3816 6.56124 20.1749 7.45073 20.2911 8.3279L16.8378 10.5897C16.4367 10.8525 16.0915 11.1917 15.8218 11.5881C15.5522 11.9845 15.3634 12.4302 15.2664 12.8997C15.1693 13.3692 15.1659 13.8533 15.2562 14.3241C15.3466 14.7949 15.529 15.2433 15.793 15.6434L24.7003 29.1429ZM57.3672 10.8193L60.118 12.621C60.2516 12.7087 60.3666 12.8218 60.4565 12.954C60.5463 13.0861 60.6092 13.2347 60.6416 13.3911C60.674 13.5476 60.6752 13.7089 60.6452 13.8659C60.6152 14.0228 60.5545 14.1723 60.4667 14.3058L53.7298 24.516L57.3672 10.8193ZM51.286 5.76356L54.7 6.67383C55.0107 6.75711 55.2759 6.96012 55.4373 7.23842C55.5988 7.51672 55.6434 7.84765 55.5615 8.15878L51.286 24.2578V5.76356ZM23.5863 6.67383L27.0003 5.76356V24.2578L22.7248 8.15878C22.6428 7.84765 22.6875 7.51672 22.8489 7.23842C23.0104 6.96011 23.2755 6.75711 23.5863 6.67383ZM17.6447 13.3909C17.6767 13.2343 17.7394 13.0856 17.8293 12.9535C17.9191 12.8213 18.0344 12.7083 18.1683 12.621L20.9191 10.8193L24.5565 24.5156L17.8202 14.3061C17.7318 14.1728 17.6707 14.0232 17.6406 13.8661C17.6105 13.709 17.6119 13.5475 17.6447 13.3909Z" fill="#025CF5" fill-opacity="0.1"/>
<path d="M26.3928 36.4286C25.105 36.4301 23.8704 36.9422 22.9599 37.8528C22.0493 38.7634 21.5371 39.998 21.5356 41.2857V51.6072C21.5371 52.8949 22.0493 54.1295 22.9599 55.0401C23.8705 55.9507 25.105 56.4629 26.3928 56.4643H51.8928C53.1805 56.4629 54.4151 55.9507 55.3257 55.0401C56.2363 54.1295 56.7485 52.8949 56.7499 51.6072V41.2857C56.7485 39.998 56.2363 38.7634 55.3257 37.8528C54.4151 36.9422 53.1805 36.4301 51.8928 36.4286H26.3928ZM54.3214 41.2857V51.6072C54.3214 52.2513 54.0655 52.869 53.6101 53.3244C53.1546 53.7799 52.5369 54.0357 51.8928 54.0357H26.3928C25.7487 54.0357 25.131 53.7799 24.6755 53.3244C24.2201 52.869 23.9642 52.2513 23.9642 51.6072V41.2857C23.9642 40.6416 24.2201 40.0239 24.6755 39.5685C25.131 39.113 25.7487 38.8572 26.3928 38.8572H51.8928C52.5369 38.8572 53.1546 39.113 53.6101 39.5685C54.0655 40.0239 54.3214 40.6416 54.3214 41.2857Z" fill="#025CF5" fill-opacity="0.1"/>
<path d="M42.6575 43.9707L37.8003 41.5421C37.4301 41.357 37.0186 41.2696 36.6051 41.2882C36.1915 41.3068 35.7896 41.4308 35.4374 41.6484C35.0853 41.8661 34.7946 42.1701 34.593 42.5317C34.3915 42.8932 34.2856 43.3003 34.2856 43.7143V48.5715C34.2856 48.9854 34.3915 49.3925 34.593 49.7541C34.7946 50.1157 35.0853 50.4197 35.4374 50.6373C35.7896 50.855 36.1915 50.979 36.6051 50.9976C37.0186 51.0162 37.4301 50.9288 37.8003 50.7436L42.6575 48.3151C43.0609 48.1134 43.4001 47.8033 43.6372 47.4197C43.8743 47.036 43.9999 46.5939 43.9999 46.1429C43.9999 45.6919 43.8743 45.2498 43.6372 44.8661C43.4001 44.4825 43.0609 44.1724 42.6575 43.9707ZM36.7142 48.5715V43.7143L41.5714 46.1429L36.7142 48.5715Z" fill="#025CF5" fill-opacity="0.1"/>
</svg>
