<svg width="62" height="62" viewBox="0 0 62 62" fill="none" xmlns="http://www.w3.org/2000/svg">
<path d="M11.0195 43.7148V54.6133H50.9805V43.7148H11.0195Z" fill="#FF9F00"/>
<path d="M31 43.7148H50.9805V54.6133H31V43.7148Z" fill="#FF7816"/>
<path d="M51.1621 27.8757L48.2194 33.6153H13.7806L10.8379 27.8757C15.1608 21.8815 22.681 18.2852 31 18.2852C39.319 18.2852 46.8392 21.8815 51.1621 27.8757Z" fill="#FF4B00"/>
<path d="M51.1621 27.8757L48.2194 33.6153H31V18.2852C39.319 18.2852 46.8392 21.8815 51.1621 27.8757Z" fill="#CC1E0D"/>
<path d="M57.7741 24.2429L50.9806 47.3477H11.0196L4.22607 24.2429L8.80351 22.4993C10.8744 26.459 14.8341 28.7839 18.0672 29.1836H19.9564C24.1342 28.5299 27.258 22.1361 28.53 16.0327H33.4707C34.7422 22.1361 37.8665 28.5299 42.0438 29.1836H43.933C47.1661 28.7839 51.1258 26.459 53.1967 22.4993L57.7741 24.2429Z" fill="#FDBF00"/>
<path d="M57.774 24.2429L50.9805 47.3477H31V16.0327H33.4701C34.7421 22.1361 37.8659 28.5299 42.0437 29.1836H43.9329C47.166 28.7839 51.1257 26.459 53.1966 22.4993L57.774 24.2429Z" fill="#FF9F00"/>
<path d="M5.57031 25.5508C2.56567 25.5508 0 23.1062 0 20.1016C0 17.0969 2.56567 14.6523 5.57031 14.6523C8.57495 14.6523 11.0195 17.0969 11.0195 20.1016C11.0195 23.1062 8.57495 25.5508 5.57031 25.5508Z" fill="#FF9F00"/>
<path d="M56.4297 25.5508C53.425 25.5508 50.9805 23.1062 50.9805 20.1016C50.9805 17.0969 53.425 14.6523 56.4297 14.6523C59.4343 14.6523 62 17.0969 62 20.1016C62 23.1062 59.4343 25.5508 56.4297 25.5508Z" fill="#FF7816"/>
<path d="M31 7.38672C27.9845 7.38672 25.5508 9.82042 25.5508 12.8359C25.5508 15.851 27.9845 18.2852 31 18.2852C34.0155 18.2852 36.4492 15.851 36.4492 12.8359C36.4492 9.82042 34.0155 7.38672 31 7.38672Z" fill="#FF9F00"/>
<path d="M30.9998 28.4206L24.7876 34.6328L30.9998 40.845L37.212 34.6328L30.9998 28.4206Z" fill="#FF4B00"/>
<path d="M41.8986 35.6966L44.4671 38.2651L41.8986 40.8336L39.3301 38.2651L41.8986 35.6966Z" fill="#CC1E0D"/>
<path d="M20.1017 35.6966L22.6702 38.2651L20.1017 40.8336L17.5332 38.2651L20.1017 35.6966Z" fill="#FF4B00"/>
<path d="M31 18.2852V7.38672C34.0155 7.38672 36.4492 9.82042 36.4492 12.8359C36.4492 15.851 34.0155 18.2852 31 18.2852Z" fill="#FF7816"/>
<path d="M37.2122 34.6328L31 40.845V28.4206L37.2122 34.6328Z" fill="#CC1E0D"/>
</svg>
