<svg width="140" height="22" viewBox="0 0 140 22" fill="none" xmlns="http://www.w3.org/2000/svg">
<path d="M16.458 14.504C16.458 15.548 16.2743 16.505 15.907 17.375C15.559 18.2257 15.0467 18.9603 14.37 19.579C13.6933 20.1783 12.8717 20.6423 11.905 20.971C10.9383 21.2997 9.846 21.464 8.628 21.464C7.41 21.464 6.31767 21.2997 5.351 20.971C4.38433 20.6423 3.56267 20.1783 2.886 19.579C2.20933 18.9603 1.68733 18.2257 1.32 17.375C0.972 16.505 0.798 15.548 0.798 14.504V3.426C1.01067 3.38733 1.349 3.339 1.813 3.281C2.277 3.20367 2.72167 3.165 3.147 3.165C3.59167 3.165 3.97833 3.20367 4.307 3.281C4.655 3.339 4.945 3.455 5.177 3.629C5.409 3.803 5.583 4.04467 5.699 4.354C5.815 4.66333 5.873 5.06933 5.873 5.572V14.417C5.873 15.345 6.12433 16.07 6.627 16.592C7.149 17.114 7.816 17.375 8.628 17.375C9.45933 17.375 10.1263 17.114 10.629 16.592C11.1317 16.07 11.383 15.345 11.383 14.417V3.426C11.5957 3.38733 11.934 3.339 12.398 3.281C12.862 3.20367 13.3067 3.165 13.732 3.165C14.1767 3.165 14.5633 3.20367 14.892 3.281C15.24 3.339 15.53 3.455 15.762 3.629C15.994 3.803 16.168 4.04467 16.284 4.354C16.4 4.66333 16.458 5.06933 16.458 5.572V14.504ZM28.6978 12.068C28.6978 11.4687 28.5238 11.0337 28.1758 10.763C27.8471 10.473 27.3928 10.328 26.8128 10.328C26.4261 10.328 26.0395 10.3763 25.6528 10.473C25.2855 10.5697 24.9665 10.7147 24.6958 10.908V20.971C24.5025 21.029 24.1931 21.087 23.7678 21.145C23.3618 21.203 22.9365 21.232 22.4918 21.232C22.0665 21.232 21.6798 21.203 21.3318 21.145C21.0031 21.087 20.7228 20.971 20.4908 20.797C20.2588 20.623 20.0751 20.391 19.9398 20.101C19.8238 19.7917 19.7658 19.3953 19.7658 18.912V10.212C19.7658 9.69 19.8721 9.26467 20.0848 8.936C20.3168 8.60733 20.6261 8.30767 21.0128 8.037C21.6701 7.573 22.4918 7.196 23.4778 6.906C24.4831 6.616 25.5948 6.471 26.8128 6.471C28.9975 6.471 30.6795 6.95433 31.8588 7.921C33.0381 8.86833 33.6278 10.1927 33.6278 11.894V20.971C33.4345 21.029 33.1251 21.087 32.6998 21.145C32.2938 21.203 31.8685 21.232 31.4238 21.232C30.9985 21.232 30.6118 21.203 30.2638 21.145C29.9351 21.087 29.6548 20.971 29.4228 20.797C29.1908 20.623 29.0071 20.391 28.8718 20.101C28.7558 19.7917 28.6978 19.3953 28.6978 18.912V12.068ZM36.557 2.991C36.557 2.25633 36.7987 1.63767 37.282 1.135C37.7847 0.632332 38.442 0.380999 39.254 0.380999C40.066 0.380999 40.7137 0.632332 41.197 1.135C41.6997 1.63767 41.951 2.25633 41.951 2.991C41.951 3.72567 41.6997 4.34433 41.197 4.847C40.7137 5.34967 40.066 5.601 39.254 5.601C38.442 5.601 37.7847 5.34967 37.282 4.847C36.7987 4.34433 36.557 3.72567 36.557 2.991ZM41.719 20.971C41.5064 21.0097 41.1874 21.058 40.762 21.116C40.356 21.1933 39.9404 21.232 39.515 21.232C39.0897 21.232 38.703 21.203 38.355 21.145C38.0264 21.087 37.746 20.971 37.514 20.797C37.282 20.623 37.0984 20.391 36.963 20.101C36.847 19.7917 36.789 19.3953 36.789 18.912V7.109C37.0017 7.07033 37.311 7.022 37.717 6.964C38.1424 6.88667 38.5677 6.848 38.993 6.848C39.4184 6.848 39.7954 6.877 40.124 6.935C40.472 6.993 40.762 7.109 40.994 7.283C41.226 7.457 41.4 7.69867 41.516 8.008C41.6514 8.298 41.719 8.68467 41.719 9.168V20.971ZM49.8746 20.971C49.6619 21.0097 49.3429 21.058 48.9176 21.116C48.5116 21.1933 48.0959 21.232 47.6706 21.232C47.2453 21.232 46.8586 21.203 46.5106 21.145C46.1819 21.087 45.9016 20.971 45.6696 20.797C45.4376 20.623 45.2539 20.391 45.1186 20.101C45.0026 19.7917 44.9446 19.3953 44.9446 18.912V2.092C45.1573 2.05333 45.4666 2.005 45.8726 1.947C46.2979 1.86967 46.7233 1.831 47.1486 1.831C47.5739 1.831 47.9509 1.86 48.2796 1.918C48.6276 1.976 48.9176 2.092 49.1496 2.266C49.3816 2.44 49.5556 2.68167 49.6716 2.991C49.8069 3.281 49.8746 3.66767 49.8746 4.151V20.971ZM60.4385 21.464C59.2979 21.464 58.2345 21.3093 57.2485 21C56.2819 20.6713 55.4312 20.188 54.6965 19.55C53.9812 18.912 53.4109 18.1097 52.9855 17.143C52.5795 16.1763 52.3765 15.0453 52.3765 13.75C52.3765 12.474 52.5795 11.3817 52.9855 10.473C53.4109 9.545 53.9619 8.791 54.6385 8.211C55.3152 7.61167 56.0885 7.17667 56.9585 6.906C57.8285 6.616 58.7179 6.471 59.6265 6.471C60.6512 6.471 61.5792 6.62567 62.4105 6.935C63.2612 7.24433 63.9862 7.66967 64.5855 8.211C65.2042 8.75233 65.6779 9.4 66.0065 10.154C66.3545 10.908 66.5285 11.7297 66.5285 12.619C66.5285 13.2763 66.3449 13.779 65.9775 14.127C65.6102 14.475 65.0979 14.6973 64.4405 14.794L57.2775 15.867C57.4902 16.505 57.9252 16.9883 58.5825 17.317C59.2399 17.6263 59.9939 17.781 60.8445 17.781C61.6372 17.781 62.3815 17.6843 63.0775 17.491C63.7929 17.2783 64.3729 17.0367 64.8175 16.766C65.1269 16.9593 65.3879 17.23 65.6005 17.578C65.8132 17.926 65.9195 18.2933 65.9195 18.68C65.9195 19.55 65.5135 20.1977 64.7015 20.623C64.0829 20.9517 63.3869 21.174 62.6135 21.29C61.8402 21.406 61.1152 21.464 60.4385 21.464ZM59.6265 10.067C59.1625 10.067 58.7565 10.1443 58.4085 10.299C58.0799 10.4537 57.8092 10.6567 57.5965 10.908C57.3839 11.14 57.2195 11.4107 57.1035 11.72C57.0069 12.01 56.9489 12.3097 56.9295 12.619L61.8885 11.807C61.8305 11.4203 61.6179 11.0337 61.2505 10.647C60.8832 10.2603 60.3419 10.067 59.6265 10.067ZM74.9336 17.868C75.2622 17.868 75.6199 17.839 76.0066 17.781C76.4126 17.7037 76.7122 17.607 76.9056 17.491V15.171L74.8176 15.345C74.2762 15.3837 73.8316 15.4997 73.4836 15.693C73.1356 15.8863 72.9616 16.1763 72.9616 16.563C72.9616 16.9497 73.1066 17.2687 73.3966 17.52C73.7059 17.752 74.2182 17.868 74.9336 17.868ZM74.7016 6.471C75.7456 6.471 76.6929 6.57733 77.5436 6.79C78.4136 7.00267 79.1482 7.33133 79.7476 7.776C80.3662 8.20133 80.8399 8.75233 81.1686 9.429C81.4972 10.0863 81.6616 10.8693 81.6616 11.778V18.274C81.6616 18.7767 81.5166 19.1923 81.2266 19.521C80.9559 19.8303 80.6272 20.101 80.2406 20.333C78.9839 21.087 77.2149 21.464 74.9336 21.464C73.9089 21.464 72.9809 21.3673 72.1496 21.174C71.3376 20.9807 70.6319 20.6907 70.0326 20.304C69.4526 19.9173 68.9982 19.4243 68.6696 18.825C68.3602 18.2257 68.2056 17.5297 68.2056 16.737C68.2056 15.403 68.6019 14.3783 69.3946 13.663C70.1872 12.9477 71.4149 12.503 73.0776 12.329L76.8766 11.923V11.72C76.8766 11.1593 76.6252 10.763 76.1226 10.531C75.6392 10.2797 74.9336 10.154 74.0056 10.154C73.2709 10.154 72.5556 10.2313 71.8596 10.386C71.1636 10.5407 70.5352 10.734 69.9746 10.966C69.7232 10.792 69.5106 10.531 69.3366 10.183C69.1626 9.81567 69.0756 9.43867 69.0756 9.052C69.0756 8.54933 69.1916 8.153 69.4236 7.863C69.6749 7.55367 70.0519 7.29267 70.5546 7.08C71.1152 6.86733 71.7726 6.71267 72.5266 6.616C73.2999 6.51933 74.0249 6.471 74.7016 6.471ZM89.606 20.971C89.4126 21.029 89.1033 21.087 88.678 21.145C88.272 21.203 87.8466 21.232 87.402 21.232C86.9766 21.232 86.59 21.203 86.242 21.145C85.9133 21.087 85.633 20.971 85.401 20.797C85.169 20.623 84.9853 20.391 84.85 20.101C84.734 19.7917 84.676 19.3953 84.676 18.912V10.212C84.676 9.76733 84.7533 9.39033 84.908 9.081C85.082 8.75233 85.3236 8.46233 85.633 8.211C85.9423 7.95967 86.3193 7.73733 86.764 7.544C87.228 7.33133 87.721 7.14767 88.243 6.993C88.765 6.83833 89.3063 6.72233 89.867 6.645C90.4276 6.54833 90.9883 6.5 91.549 6.5C92.477 6.5 93.2116 6.68367 93.753 7.051C94.2943 7.399 94.565 7.979 94.565 8.791C94.565 9.06167 94.5263 9.33233 94.449 9.603C94.3716 9.85433 94.275 10.0863 94.159 10.299C93.753 10.299 93.3373 10.3183 92.912 10.357C92.4866 10.3957 92.071 10.4537 91.665 10.531C91.259 10.6083 90.8723 10.6953 90.505 10.792C90.157 10.8693 89.8573 10.966 89.606 11.082V20.971ZM105.248 12.068C105.248 11.4687 105.074 11.0337 104.726 10.763C104.397 10.473 103.943 10.328 103.363 10.328C102.976 10.328 102.589 10.3763 102.203 10.473C101.835 10.5697 101.516 10.7147 101.246 10.908V20.971C101.052 21.029 100.743 21.087 100.318 21.145C99.9116 21.203 99.4863 21.232 99.0416 21.232C98.6163 21.232 98.2296 21.203 97.8816 21.145C97.553 21.087 97.2726 20.971 97.0406 20.797C96.8086 20.623 96.625 20.391 96.4896 20.101C96.3736 19.7917 96.3156 19.3953 96.3156 18.912V10.212C96.3156 9.69 96.422 9.26467 96.6346 8.936C96.8666 8.60733 97.176 8.30767 97.5626 8.037C98.22 7.573 99.0416 7.196 100.028 6.906C101.033 6.616 102.145 6.471 103.363 6.471C105.547 6.471 107.229 6.95433 108.409 7.921C109.588 8.86833 110.178 10.1927 110.178 11.894V20.971C109.984 21.029 109.675 21.087 109.25 21.145C108.844 21.203 108.418 21.232 107.974 21.232C107.548 21.232 107.162 21.203 106.814 21.145C106.485 21.087 106.205 20.971 105.973 20.797C105.741 20.623 105.557 20.391 105.422 20.101C105.306 19.7917 105.248 19.3953 105.248 18.912V12.068ZM120.676 21.464C119.535 21.464 118.472 21.3093 117.486 21C116.519 20.6713 115.669 20.188 114.934 19.55C114.219 18.912 113.648 18.1097 113.223 17.143C112.817 16.1763 112.614 15.0453 112.614 13.75C112.614 12.474 112.817 11.3817 113.223 10.473C113.648 9.545 114.199 8.791 114.876 8.211C115.553 7.61167 116.326 7.17667 117.196 6.906C118.066 6.616 118.955 6.471 119.864 6.471C120.889 6.471 121.817 6.62567 122.648 6.935C123.499 7.24433 124.224 7.66967 124.823 8.211C125.442 8.75233 125.915 9.4 126.244 10.154C126.592 10.908 126.766 11.7297 126.766 12.619C126.766 13.2763 126.582 13.779 126.215 14.127C125.848 14.475 125.335 14.6973 124.678 14.794L117.515 15.867C117.728 16.505 118.163 16.9883 118.82 17.317C119.477 17.6263 120.231 17.781 121.082 17.781C121.875 17.781 122.619 17.6843 123.315 17.491C124.03 17.2783 124.61 17.0367 125.055 16.766C125.364 16.9593 125.625 17.23 125.838 17.578C126.051 17.926 126.157 18.2933 126.157 18.68C126.157 19.55 125.751 20.1977 124.939 20.623C124.32 20.9517 123.624 21.174 122.851 21.29C122.078 21.406 121.353 21.464 120.676 21.464ZM119.864 10.067C119.4 10.067 118.994 10.1443 118.646 10.299C118.317 10.4537 118.047 10.6567 117.834 10.908C117.621 11.14 117.457 11.4107 117.341 11.72C117.244 12.01 117.186 12.3097 117.167 12.619L122.126 11.807C122.068 11.4203 121.855 11.0337 121.488 10.647C121.121 10.2603 120.579 10.067 119.864 10.067ZM134.069 20.971C133.876 21.029 133.566 21.087 133.141 21.145C132.735 21.203 132.31 21.232 131.865 21.232C131.44 21.232 131.053 21.203 130.705 21.145C130.376 21.087 130.096 20.971 129.864 20.797C129.632 20.623 129.448 20.391 129.313 20.101C129.197 19.7917 129.139 19.3953 129.139 18.912V10.212C129.139 9.76733 129.216 9.39033 129.371 9.081C129.545 8.75233 129.787 8.46233 130.096 8.211C130.405 7.95967 130.782 7.73733 131.227 7.544C131.691 7.33133 132.184 7.14767 132.706 6.993C133.228 6.83833 133.769 6.72233 134.33 6.645C134.891 6.54833 135.451 6.5 136.012 6.5C136.94 6.5 137.675 6.68367 138.216 7.051C138.757 7.399 139.028 7.979 139.028 8.791C139.028 9.06167 138.989 9.33233 138.912 9.603C138.835 9.85433 138.738 10.0863 138.622 10.299C138.216 10.299 137.8 10.3183 137.375 10.357C136.95 10.3957 136.534 10.4537 136.128 10.531C135.722 10.6083 135.335 10.6953 134.968 10.792C134.62 10.8693 134.32 10.966 134.069 11.082V20.971Z" fill="#014DE7"/>
</svg>
